<?xml version="1.0" encoding="UTF-8" standalone="no"?>
<!DOCTYPE svg PUBLIC "-//W3C//DTD SVG 1.1//EN"
 "http://www.w3.org/Graphics/SVG/1.1/DTD/svg11.dtd">
<!-- Generated by graphviz version 2.43.0 (0)
 -->
<!-- Title: %3 Pages: 1 -->
<svg width="985pt" height="877pt"
 viewBox="0.00 0.00 985.00 877.00" xmlns="http://www.w3.org/2000/svg" xmlns:xlink="http://www.w3.org/1999/xlink">
<g id="graph0" class="graph" transform="scale(1 1) rotate(0) translate(4 873)">
<title>%3</title>
<polygon fill="white" stroke="transparent" points="-4,4 -4,-873 981,-873 981,4 -4,4"/>
<!-- 1 -->
<g id="node1" class="node">
<title>1</title>
<polygon fill="#ff0000" stroke="#ff0000" points="376.5,-869 321.5,-869 321.5,-828 376.5,-828 376.5,-869"/>
<text text-anchor="middle" x="349" y="-857" font-family="Arial" font-size="10.00" fill="#ffffff">main</text>
<text text-anchor="middle" x="349" y="-846" font-family="Arial" font-size="10.00" fill="#ffffff">100.00%</text>
<text text-anchor="middle" x="349" y="-835" font-family="Arial" font-size="10.00" fill="#ffffff">(0.00%)</text>
</g>
<!-- 2 -->
<g id="node2" class="node">
<title>2</title>
<polygon fill="#ff0000" stroke="#ff0000" points="376.5,-788 321.5,-788 321.5,-736 376.5,-736 376.5,-788"/>
<text text-anchor="middle" x="349" y="-776" font-family="Arial" font-size="10.00" fill="#ffffff">iterate</text>
<text text-anchor="middle" x="349" y="-765" font-family="Arial" font-size="10.00" fill="#ffffff">100.00%</text>
<text text-anchor="middle" x="349" y="-754" font-family="Arial" font-size="10.00" fill="#ffffff">(0.00%)</text>
<text text-anchor="middle" x="349" y="-743" font-family="Arial" font-size="10.00" fill="#ffffff">5×</text>
</g>
<!-- 1&#45;&gt;2 -->
<g id="edge1" class="edge">
<title>1&#45;&gt;2</title>
<path fill="none" stroke="#ff0000" stroke-width="4" d="M349,-827.9C349,-819.14 349,-808.55 349,-798.47"/>
<polygon fill="#ff0000" stroke="#ff0000" stroke-width="4" points="352.5,-798.27 349,-788.27 345.5,-798.27 352.5,-798.27"/>
<text text-anchor="middle" x="368.5" y="-811" font-family="Arial" font-size="10.00" fill="#ff0000">100.00%</text>
<text text-anchor="middle" x="368.5" y="-800" font-family="Arial" font-size="10.00" fill="#ff0000">5×</text>
</g>
<!-- 3 -->
<g id="node3" class="node">
<title>3</title>
<polygon fill="#ff0100" stroke="#ff0100" points="391.5,-696 306.5,-696 306.5,-644 391.5,-644 391.5,-696"/>
<text text-anchor="middle" x="349" y="-684" font-family="Arial" font-size="10.00" fill="#ffffff">core_bench_list</text>
<text text-anchor="middle" x="349" y="-673" font-family="Arial" font-size="10.00" fill="#ffffff">99.93%</text>
<text text-anchor="middle" x="349" y="-662" font-family="Arial" font-size="10.00" fill="#ffffff">(3.49%)</text>
<text text-anchor="middle" x="349" y="-651" font-family="Arial" font-size="10.00" fill="#ffffff">242220×</text>
</g>
<!-- 2&#45;&gt;3 -->
<g id="edge2" class="edge">
<title>2&#45;&gt;3</title>
<path fill="none" stroke="#ff0100" stroke-width="4" d="M349,-735.93C349,-726.74 349,-716.17 349,-706.25"/>
<polygon fill="#ff0100" stroke="#ff0100" stroke-width="4" points="352.5,-706.25 349,-696.25 345.5,-706.25 352.5,-706.25"/>
<text text-anchor="middle" x="368" y="-719" font-family="Arial" font-size="10.00" fill="#ff0100">99.93%</text>
<text text-anchor="middle" x="368" y="-708" font-family="Arial" font-size="10.00" fill="#ff0100">242220×</text>
</g>
<!-- 4 -->
<g id="node4" class="node">
<title>4</title>
<polygon fill="#0ab11f" stroke="#0ab11f" points="400,-604 298,-604 298,-552 400,-552 400,-604"/>
<text text-anchor="middle" x="349" y="-592" font-family="Arial" font-size="10.00" fill="#ffffff">core_list_mergesort</text>
<text text-anchor="middle" x="349" y="-581" font-family="Arial" font-size="10.00" fill="#ffffff">46.87%</text>
<text text-anchor="middle" x="349" y="-570" font-family="Arial" font-size="10.00" fill="#ffffff">(2.52%)</text>
<text text-anchor="middle" x="349" y="-559" font-family="Arial" font-size="10.00" fill="#ffffff">363331×</text>
</g>
<!-- 3&#45;&gt;4 -->
<g id="edge3" class="edge">
<title>3&#45;&gt;4</title>
<path fill="none" stroke="#0ab11f" stroke-width="1.87" d="M349,-643.93C349,-633.78 349,-621.92 349,-611.15"/>
<polygon fill="#0ab11f" stroke="#0ab11f" stroke-width="1.87" points="351.38,-611.05 349,-604.25 346.62,-611.05 351.38,-611.05"/>
<text text-anchor="middle" x="368" y="-627" font-family="Arial" font-size="10.00" fill="#0ab11f">46.87%</text>
<text text-anchor="middle" x="368" y="-616" font-family="Arial" font-size="10.00" fill="#0ab11f">363330×</text>
</g>
<!-- 7 -->
<g id="node5" class="node">
<title>7</title>
<polygon fill="#0c9491" stroke="#0c9491" points="483,-604 409,-604 409,-552 483,-552 483,-604"/>
<text text-anchor="middle" x="446" y="-592" font-family="Arial" font-size="10.00" fill="#ffffff">core_list_find</text>
<text text-anchor="middle" x="446" y="-581" font-family="Arial" font-size="10.00" fill="#ffffff">25.51%</text>
<text text-anchor="middle" x="446" y="-570" font-family="Arial" font-size="10.00" fill="#ffffff">(25.51%)</text>
<text text-anchor="middle" x="446" y="-559" font-family="Arial" font-size="10.00" fill="#ffffff">24948660×</text>
</g>
<!-- 3&#45;&gt;7 -->
<g id="edge4" class="edge">
<title>3&#45;&gt;7</title>
<path fill="none" stroke="#0c9491" stroke-width="1.02" d="M378.91,-643.98C382.35,-640.99 385.77,-637.95 389,-635 398.41,-626.4 408.4,-616.76 417.36,-607.94"/>
<polygon fill="#0c9491" stroke="#0c9491" stroke-width="1.02" points="418.75,-609.06 421.12,-604.21 416.24,-606.53 418.75,-609.06"/>
<text text-anchor="middle" x="436.5" y="-627" font-family="Arial" font-size="10.00" fill="#0c9491">25.51%</text>
<text text-anchor="middle" x="436.5" y="-616" font-family="Arial" font-size="10.00" fill="#0c9491">24948660×</text>
</g>
<!-- 10 -->
<g id="node6" class="node">
<title>10</title>
<polygon fill="#0c738d" stroke="#0c738d" points="583.5,-604 492.5,-604 492.5,-552 583.5,-552 583.5,-604"/>
<text text-anchor="middle" x="538" y="-592" font-family="Arial" font-size="10.00" fill="#ffffff">core_list_reverse</text>
<text text-anchor="middle" x="538" y="-581" font-family="Arial" font-size="10.00" fill="#ffffff">19.98%</text>
<text text-anchor="middle" x="538" y="-570" font-family="Arial" font-size="10.00" fill="#ffffff">(19.98%)</text>
<text text-anchor="middle" x="538" y="-559" font-family="Arial" font-size="10.00" fill="#ffffff">24706440×</text>
</g>
<!-- 3&#45;&gt;10 -->
<g id="edge5" class="edge">
<title>3&#45;&gt;10</title>
<path fill="none" stroke="#0c738d" stroke-width="0.8" d="M391.77,-660.04C413.76,-654.5 440.58,-646.27 463,-635 477.87,-627.53 492.84,-617.07 505.46,-607.22"/>
<polygon fill="#0c738d" stroke="#0c738d" stroke-width="0.8" points="506.75,-608.21 509.3,-604.18 504.79,-605.74 506.75,-608.21"/>
<text text-anchor="middle" x="521.5" y="-627" font-family="Arial" font-size="10.00" fill="#0c738d">19.98%</text>
<text text-anchor="middle" x="521.5" y="-616" font-family="Arial" font-size="10.00" fill="#0c738d">24706440×</text>
</g>
<!-- 14 -->
<g id="node7" class="node">
<title>14</title>
<polygon fill="#0d357e" stroke="#0d357e" points="174.5,-52 109.5,-52 109.5,0 174.5,0 174.5,-52"/>
<text text-anchor="middle" x="142" y="-40" font-family="Arial" font-size="10.00" fill="#ffffff">crcu8</text>
<text text-anchor="middle" x="142" y="-29" font-family="Arial" font-size="10.00" fill="#ffffff">8.85%</text>
<text text-anchor="middle" x="142" y="-18" font-family="Arial" font-size="10.00" fill="#ffffff">(8.85%)</text>
<text text-anchor="middle" x="142" y="-7" font-family="Arial" font-size="10.00" fill="#ffffff">70728248×</text>
</g>
<!-- 3&#45;&gt;14 -->
<g id="edge6" class="edge">
<title>3&#45;&gt;14</title>
<path fill="none" stroke="#0d1475" stroke-width="0.5" d="M306.21,-666.95C213.01,-661.31 0,-641.57 0,-579 0,-579 0,-579 0,-117 0,-66.89 63.86,-43.52 105.93,-33.55"/>
<polygon fill="#0d1475" stroke="#0d1475" stroke-width="0.5" points="106.29,-34.73 109.42,-32.74 105.74,-32.34 106.29,-34.73"/>
<text text-anchor="middle" x="24.5" y="-351" font-family="Arial" font-size="10.00" fill="#0d1475">1.73%</text>
<text text-anchor="middle" x="24.5" y="-340" font-family="Arial" font-size="10.00" fill="#0d1475">13806540×</text>
</g>
<!-- 16 -->
<g id="node8" class="node">
<title>16</title>
<polygon fill="#0d247a" stroke="#0d247a" points="287.5,-144 222.5,-144 222.5,-92 287.5,-92 287.5,-144"/>
<text text-anchor="middle" x="255" y="-132" font-family="Arial" font-size="10.00" fill="#ffffff">crcu16</text>
<text text-anchor="middle" x="255" y="-121" font-family="Arial" font-size="10.00" fill="#ffffff">5.32%</text>
<text text-anchor="middle" x="255" y="-110" font-family="Arial" font-size="10.00" fill="#ffffff">(0.89%)</text>
<text text-anchor="middle" x="255" y="-99" font-family="Arial" font-size="10.00" fill="#ffffff">35364124×</text>
</g>
<!-- 3&#45;&gt;16 -->
<g id="edge7" class="edge">
<title>3&#45;&gt;16</title>
<path fill="none" stroke="#0d1575" stroke-width="0.5" d="M317.64,-643.64C301.02,-627.22 284,-604.25 284,-579 284,-579 284,-579 284,-209 284,-187.76 276.59,-165 269.27,-147.69"/>
<polygon fill="#0d1575" stroke="#0d1575" stroke-width="0.5" points="270.32,-147.03 267.8,-144.3 268.07,-148 270.32,-147.03"/>
<text text-anchor="middle" x="308.5" y="-397" font-family="Arial" font-size="10.00" fill="#0d1575">2.08%</text>
<text text-anchor="middle" x="308.5" y="-386" font-family="Arial" font-size="10.00" fill="#0d1575">13806540×</text>
</g>
<!-- 5 -->
<g id="node9" class="node">
<title>5</title>
<polygon fill="#0aad35" stroke="#0aad35" points="387.5,-512 310.5,-512 310.5,-460 387.5,-460 387.5,-512"/>
<text text-anchor="middle" x="349" y="-500" font-family="Arial" font-size="10.00" fill="#ffffff">cmp_complex</text>
<text text-anchor="middle" x="349" y="-489" font-family="Arial" font-size="10.00" fill="#ffffff">43.45%</text>
<text text-anchor="middle" x="349" y="-478" font-family="Arial" font-size="10.00" fill="#ffffff">(0.32%)</text>
<text text-anchor="middle" x="349" y="-467" font-family="Arial" font-size="10.00" fill="#ffffff">13450378×</text>
</g>
<!-- 4&#45;&gt;5 -->
<g id="edge8" class="edge">
<title>4&#45;&gt;5</title>
<path fill="none" stroke="#0aad35" stroke-width="1.74" d="M349,-551.93C349,-541.78 349,-529.92 349,-519.15"/>
<polygon fill="#0aad35" stroke="#0aad35" stroke-width="1.74" points="351.31,-518.85 349,-512.25 346.69,-518.85 351.31,-518.85"/>
<text text-anchor="middle" x="373.5" y="-535" font-family="Arial" font-size="10.00" fill="#0aad35">43.45%</text>
<text text-anchor="middle" x="373.5" y="-524" font-family="Arial" font-size="10.00" fill="#0aad35">13450378×</text>
</g>
<!-- 19 -->
<g id="node10" class="node">
<title>19</title>
<polygon fill="#0d1074" stroke="#0d1074" points="461.5,-512 396.5,-512 396.5,-460 461.5,-460 461.5,-512"/>
<text text-anchor="middle" x="429" y="-500" font-family="Arial" font-size="10.00" fill="#ffffff">cmp_idx</text>
<text text-anchor="middle" x="429" y="-489" font-family="Arial" font-size="10.00" fill="#ffffff">0.89%</text>
<text text-anchor="middle" x="429" y="-478" font-family="Arial" font-size="10.00" fill="#ffffff">(0.89%)</text>
<text text-anchor="middle" x="429" y="-467" font-family="Arial" font-size="10.00" fill="#ffffff">25197109×</text>
</g>
<!-- 4&#45;&gt;19 -->
<g id="edge9" class="edge">
<title>4&#45;&gt;19</title>
<path fill="none" stroke="#0d1074" stroke-width="0.5" d="M390.84,-551.79C394.12,-549.03 397.23,-546.09 400,-543 407.16,-535.01 413.08,-524.93 417.67,-515.54"/>
<polygon fill="#0d1074" stroke="#0d1074" stroke-width="0.5" points="418.9,-515.8 419.3,-512.11 416.69,-514.75 418.9,-515.8"/>
<text text-anchor="middle" x="439.5" y="-535" font-family="Arial" font-size="10.00" fill="#0d1074">0.89%</text>
<text text-anchor="middle" x="439.5" y="-524" font-family="Arial" font-size="10.00" fill="#0d1074">25197109×</text>
</g>
<!-- 16&#45;&gt;14 -->
<g id="edge27" class="edge">
<title>16&#45;&gt;14</title>
<path fill="none" stroke="#0d2078" stroke-width="0.5" d="M223.52,-91.93C208.95,-80.32 191.6,-66.5 176.65,-54.6"/>
<polygon fill="#0d2078" stroke="#0d2078" stroke-width="0.5" points="177.2,-53.47 173.7,-52.25 175.67,-55.39 177.2,-53.47"/>
<text text-anchor="middle" x="236.5" y="-75" font-family="Arial" font-size="10.00" fill="#0d2078">4.43%</text>
<text text-anchor="middle" x="236.5" y="-64" font-family="Arial" font-size="10.00" fill="#0d2078">35364124×</text>
</g>
<!-- 6 -->
<g id="node11" class="node">
<title>6</title>
<polygon fill="#0aac37" stroke="#0aac37" points="407.5,-420 342.5,-420 342.5,-368 407.5,-368 407.5,-420"/>
<text text-anchor="middle" x="375" y="-408" font-family="Arial" font-size="10.00" fill="#ffffff">calc_func</text>
<text text-anchor="middle" x="375" y="-397" font-family="Arial" font-size="10.00" fill="#ffffff">43.13%</text>
<text text-anchor="middle" x="375" y="-386" font-family="Arial" font-size="10.00" fill="#ffffff">(1.22%)</text>
<text text-anchor="middle" x="375" y="-375" font-family="Arial" font-size="10.00" fill="#ffffff">26900756×</text>
</g>
<!-- 5&#45;&gt;6 -->
<g id="edge10" class="edge">
<title>5&#45;&gt;6</title>
<path fill="none" stroke="#0aac37" stroke-width="1.73" d="M356.24,-459.93C359.2,-449.68 362.66,-437.7 365.8,-426.84"/>
<polygon fill="#0aac37" stroke="#0aac37" stroke-width="1.73" points="368.09,-427.23 367.71,-420.25 363.66,-425.95 368.09,-427.23"/>
<text text-anchor="middle" x="390.5" y="-443" font-family="Arial" font-size="10.00" fill="#0aac37">43.13%</text>
<text text-anchor="middle" x="390.5" y="-432" font-family="Arial" font-size="10.00" fill="#0aac37">26900756×</text>
</g>
<!-- 6&#45;&gt;14 -->
<g id="edge13" class="edge">
<title>6&#45;&gt;14</title>
<path fill="none" stroke="#0d0f73" stroke-width="0.5" d="M379.9,-367.67C387.42,-322.19 397.68,-224.74 364,-153 338.2,-98.04 316.1,-90.45 263,-61 236.54,-46.32 203.24,-37.57 178.27,-32.63"/>
<polygon fill="#0d0f73" stroke="#0d0f73" stroke-width="0.5" points="178.32,-31.39 174.65,-31.93 177.85,-33.8 178.32,-31.39"/>
<text text-anchor="middle" x="407.5" y="-213" font-family="Arial" font-size="10.00" fill="#0d0f73">0.49%</text>
<text text-anchor="middle" x="407.5" y="-202" font-family="Arial" font-size="10.00" fill="#0d0f73">3875520×</text>
</g>
<!-- 6&#45;&gt;16 -->
<g id="edge14" class="edge">
<title>6&#45;&gt;16</title>
<path fill="none" stroke="#0d0f73" stroke-width="0.5" d="M363.55,-367.76C352.37,-342.56 335.28,-302.57 323,-267 305.82,-217.26 318.23,-198.03 291,-153 289.77,-150.97 288.39,-148.99 286.91,-147.06"/>
<polygon fill="#0d0f73" stroke="#0d0f73" stroke-width="0.5" points="287.65,-146.03 284.49,-144.08 285.75,-147.57 287.65,-146.03"/>
<text text-anchor="middle" x="344.5" y="-259" font-family="Arial" font-size="10.00" fill="#0d0f73">0.58%</text>
<text text-anchor="middle" x="344.5" y="-248" font-family="Arial" font-size="10.00" fill="#0d0f73">3875520×</text>
</g>
<!-- 8 -->
<g id="node12" class="node">
<title>8</title>
<polygon fill="#0c8a91" stroke="#0c8a91" points="537.5,-328 438.5,-328 438.5,-276 537.5,-276 537.5,-328"/>
<text text-anchor="middle" x="488" y="-316" font-family="Arial" font-size="10.00" fill="#ffffff">core_bench_matrix</text>
<text text-anchor="middle" x="488" y="-305" font-family="Arial" font-size="10.00" fill="#ffffff">23.56%</text>
<text text-anchor="middle" x="488" y="-294" font-family="Arial" font-size="10.00" fill="#ffffff">(0.00%)</text>
<text text-anchor="middle" x="488" y="-283" font-family="Arial" font-size="10.00" fill="#ffffff">484440×</text>
</g>
<!-- 6&#45;&gt;8 -->
<g id="edge11" class="edge">
<title>6&#45;&gt;8</title>
<path fill="none" stroke="#0c8a91" stroke-width="0.94" d="M406.48,-367.93C420.68,-356.61 437.54,-343.19 452.22,-331.5"/>
<polygon fill="#0c8a91" stroke="#0c8a91" stroke-width="0.94" points="453.54,-332.64 456.3,-328.25 451.4,-329.96 453.54,-332.64"/>
<text text-anchor="middle" x="464" y="-351" font-family="Arial" font-size="10.00" fill="#0c8a91">23.56%</text>
<text text-anchor="middle" x="464" y="-340" font-family="Arial" font-size="10.00" fill="#0c8a91">484440×</text>
</g>
<!-- 11 -->
<g id="node13" class="node">
<title>11</title>
<polygon fill="#0c6389" stroke="#0c6389" points="202,-328 108,-328 108,-276 202,-276 202,-328"/>
<text text-anchor="middle" x="155" y="-316" font-family="Arial" font-size="10.00" fill="#ffffff">core_bench_state</text>
<text text-anchor="middle" x="155" y="-305" font-family="Arial" font-size="10.00" fill="#ffffff">17.27%</text>
<text text-anchor="middle" x="155" y="-294" font-family="Arial" font-size="10.00" fill="#ffffff">(3.41%)</text>
<text text-anchor="middle" x="155" y="-283" font-family="Arial" font-size="10.00" fill="#ffffff">484440×</text>
</g>
<!-- 6&#45;&gt;11 -->
<g id="edge12" class="edge">
<title>6&#45;&gt;11</title>
<path fill="none" stroke="#0c6389" stroke-width="0.69" d="M342.4,-371.07C339.95,-369.91 337.47,-368.87 335,-368 302.49,-356.59 290.84,-369.42 258,-359 236.9,-352.31 215.13,-341.19 197.08,-330.62"/>
<polygon fill="#0c6389" stroke="#0c6389" stroke-width="0.69" points="197.41,-329.11 193.05,-328.23 195.91,-331.64 197.41,-329.11"/>
<text text-anchor="middle" x="277" y="-351" font-family="Arial" font-size="10.00" fill="#0c6389">17.27%</text>
<text text-anchor="middle" x="277" y="-340" font-family="Arial" font-size="10.00" fill="#0c6389">484440×</text>
</g>
<!-- 9 -->
<g id="node14" class="node">
<title>9</title>
<polygon fill="#0c8a91" stroke="#0c8a91" points="650.5,-236 585.5,-236 585.5,-184 650.5,-184 650.5,-236"/>
<text text-anchor="middle" x="618" y="-224" font-family="Arial" font-size="10.00" fill="#ffffff">matrix_test</text>
<text text-anchor="middle" x="618" y="-213" font-family="Arial" font-size="10.00" fill="#ffffff">23.56%</text>
<text text-anchor="middle" x="618" y="-202" font-family="Arial" font-size="10.00" fill="#ffffff">(0.24%)</text>
<text text-anchor="middle" x="618" y="-191" font-family="Arial" font-size="10.00" fill="#ffffff">484440×</text>
</g>
<!-- 8&#45;&gt;9 -->
<g id="edge15" class="edge">
<title>8&#45;&gt;9</title>
<path fill="none" stroke="#0c8a91" stroke-width="0.94" d="M524.21,-275.93C541.8,-263.75 562.92,-249.13 580.66,-236.85"/>
<polygon fill="#0c8a91" stroke="#0c8a91" stroke-width="0.94" points="582.04,-237.98 585.09,-233.78 580.09,-235.16 582.04,-237.98"/>
<text text-anchor="middle" x="587" y="-259" font-family="Arial" font-size="10.00" fill="#0c8a91">23.56%</text>
<text text-anchor="middle" x="587" y="-248" font-family="Arial" font-size="10.00" fill="#0c8a91">484440×</text>
</g>
<!-- 11&#45;&gt;14 -->
<g id="edge24" class="edge">
<title>11&#45;&gt;14</title>
<path fill="none" stroke="#0d1174" stroke-width="0.5" d="M107.73,-289.91C79.53,-280.59 45.99,-264.12 29,-236 -9.38,-172.48 62,-95.01 107.82,-54.58"/>
<polygon fill="#0d1174" stroke="#0d1174" stroke-width="0.5" points="108.7,-55.43 110.53,-52.21 107.09,-53.59 108.7,-55.43"/>
<text text-anchor="middle" x="50.5" y="-167" font-family="Arial" font-size="10.00" fill="#0d1174">0.97%</text>
<text text-anchor="middle" x="50.5" y="-156" font-family="Arial" font-size="10.00" fill="#0d1174">7751040×</text>
</g>
<!-- 11&#45;&gt;16 -->
<g id="edge25" class="edge">
<title>11&#45;&gt;16</title>
<path fill="none" stroke="#0d1274" stroke-width="0.5" d="M202.25,-276.29C205.49,-273.45 208.46,-270.36 211,-267 234.1,-236.47 223,-220.67 234,-184 237.58,-172.06 241.76,-158.96 245.45,-147.68"/>
<polygon fill="#0d1274" stroke="#0d1274" stroke-width="0.5" points="246.65,-147.94 246.57,-144.23 244.32,-147.18 246.65,-147.94"/>
<text text-anchor="middle" x="255.5" y="-213" font-family="Arial" font-size="10.00" fill="#0d1274">1.17%</text>
<text text-anchor="middle" x="255.5" y="-202" font-family="Arial" font-size="10.00" fill="#0d1274">7751040×</text>
</g>
<!-- 13 -->
<g id="node20" class="node">
<title>13</title>
<polygon fill="#0d377f" stroke="#0d377f" points="208.5,-236 101.5,-236 101.5,-184 208.5,-184 208.5,-236"/>
<text text-anchor="middle" x="155" y="-224" font-family="Arial" font-size="10.00" fill="#ffffff">core_state_transition</text>
<text text-anchor="middle" x="155" y="-213" font-family="Arial" font-size="10.00" fill="#ffffff">9.34%</text>
<text text-anchor="middle" x="155" y="-202" font-family="Arial" font-size="10.00" fill="#ffffff">(9.34%)</text>
<text text-anchor="middle" x="155" y="-191" font-family="Arial" font-size="10.00" fill="#ffffff">124016640×</text>
</g>
<!-- 11&#45;&gt;13 -->
<g id="edge23" class="edge">
<title>11&#45;&gt;13</title>
<path fill="none" stroke="#0d377f" stroke-width="0.5" d="M155,-275.93C155,-264.71 155,-251.42 155,-239.8"/>
<polygon fill="#0d377f" stroke="#0d377f" stroke-width="0.5" points="156.23,-239.75 155,-236.25 153.78,-239.75 156.23,-239.75"/>
<text text-anchor="middle" x="182" y="-259" font-family="Arial" font-size="10.00" fill="#0d377f">9.34%</text>
<text text-anchor="middle" x="182" y="-248" font-family="Arial" font-size="10.00" fill="#0d377f">124016640×</text>
</g>
<!-- 18 -->
<g id="node21" class="node">
<title>18</title>
<polygon fill="#0d1776" stroke="#0d1776" points="92.5,-236 33.5,-236 33.5,-184 92.5,-184 92.5,-236"/>
<text text-anchor="middle" x="63" y="-224" font-family="Arial" font-size="10.00" fill="#ffffff">crcu32</text>
<text text-anchor="middle" x="63" y="-213" font-family="Arial" font-size="10.00" fill="#ffffff">2.38%</text>
<text text-anchor="middle" x="63" y="-202" font-family="Arial" font-size="10.00" fill="#ffffff">(0.24%)</text>
<text text-anchor="middle" x="63" y="-191" font-family="Arial" font-size="10.00" fill="#ffffff">7751040×</text>
</g>
<!-- 11&#45;&gt;18 -->
<g id="edge26" class="edge">
<title>11&#45;&gt;18</title>
<path fill="none" stroke="#0d1776" stroke-width="0.5" d="M119.96,-275.77C116.5,-272.92 113.12,-269.97 110,-267 100.99,-258.44 92,-248.24 84.33,-238.91"/>
<polygon fill="#0d1776" stroke="#0d1776" stroke-width="0.5" points="85.16,-237.98 82,-236.04 83.26,-239.53 85.16,-237.98"/>
<text text-anchor="middle" x="131.5" y="-259" font-family="Arial" font-size="10.00" fill="#0d1776">2.38%</text>
<text text-anchor="middle" x="131.5" y="-248" font-family="Arial" font-size="10.00" fill="#0d1776">7751040×</text>
</g>
<!-- 9&#45;&gt;14 -->
<g id="edge17" class="edge">
<title>9&#45;&gt;14</title>
<path fill="none" stroke="#0d0e73" stroke-width="0.5" d="M585.13,-208.96C536.89,-207.05 447.2,-196.16 397,-144 370.61,-116.58 404.26,-86.48 376,-61 347.66,-35.45 237.06,-29.08 178.64,-27.5"/>
<polygon fill="#0d0e73" stroke="#0d0e73" stroke-width="0.5" points="178.39,-26.27 174.86,-27.41 178.33,-28.72 178.39,-26.27"/>
<text text-anchor="middle" x="418.5" y="-121" font-family="Arial" font-size="10.00" fill="#0d0e73">0.24%</text>
<text text-anchor="middle" x="418.5" y="-110" font-family="Arial" font-size="10.00" fill="#0d0e73">1937760×</text>
</g>
<!-- 9&#45;&gt;16 -->
<g id="edge19" class="edge">
<title>9&#45;&gt;16</title>
<path fill="none" stroke="#0d0e73" stroke-width="0.5" d="M585.44,-204.86C545.87,-199.85 477.05,-191.19 418,-184 384.24,-179.89 374.01,-186.5 342,-175 340.5,-174.46 314.03,-157.38 290.68,-142.22"/>
<polygon fill="#0d0e73" stroke="#0d0e73" stroke-width="0.5" points="291.16,-141.07 287.55,-140.19 289.82,-143.12 291.16,-141.07"/>
<text text-anchor="middle" x="363.5" y="-167" font-family="Arial" font-size="10.00" fill="#0d0e73">0.29%</text>
<text text-anchor="middle" x="363.5" y="-156" font-family="Arial" font-size="10.00" fill="#0d0e73">1937760×</text>
</g>
<!-- 12 -->
<g id="node15" class="node">
<title>12</title>
<polygon fill="#0d3e81" stroke="#0d3e81" points="587.5,-144 444.5,-144 444.5,-92 587.5,-92 587.5,-144"/>
<text text-anchor="middle" x="516" y="-132" font-family="Arial" font-size="10.00" fill="#ffffff">matrix_mul_matrix_bitextract</text>
<text text-anchor="middle" x="516" y="-121" font-family="Arial" font-size="10.00" fill="#ffffff">10.72%</text>
<text text-anchor="middle" x="516" y="-110" font-family="Arial" font-size="10.00" fill="#ffffff">(10.72%)</text>
<text text-anchor="middle" x="516" y="-99" font-family="Arial" font-size="10.00" fill="#ffffff">484440×</text>
</g>
<!-- 9&#45;&gt;12 -->
<g id="edge16" class="edge">
<title>9&#45;&gt;12</title>
<path fill="none" stroke="#0d3e81" stroke-width="0.5" d="M589.59,-183.93C576.43,-172.32 560.77,-158.5 547.28,-146.6"/>
<polygon fill="#0d3e81" stroke="#0d3e81" stroke-width="0.5" points="548.05,-145.64 544.61,-144.25 546.43,-147.48 548.05,-145.64"/>
<text text-anchor="middle" x="598" y="-167" font-family="Arial" font-size="10.00" fill="#0d3e81">10.72%</text>
<text text-anchor="middle" x="598" y="-156" font-family="Arial" font-size="10.00" fill="#0d3e81">484440×</text>
</g>
<!-- 15 -->
<g id="node16" class="node">
<title>15</title>
<polygon fill="#0d2b7c" stroke="#0d2b7c" points="693.5,-144 596.5,-144 596.5,-92 693.5,-92 693.5,-144"/>
<text text-anchor="middle" x="645" y="-132" font-family="Arial" font-size="10.00" fill="#ffffff">matrix_mul_matrix</text>
<text text-anchor="middle" x="645" y="-121" font-family="Arial" font-size="10.00" fill="#ffffff">6.90%</text>
<text text-anchor="middle" x="645" y="-110" font-family="Arial" font-size="10.00" fill="#ffffff">(6.90%)</text>
<text text-anchor="middle" x="645" y="-99" font-family="Arial" font-size="10.00" fill="#ffffff">484440×</text>
</g>
<!-- 9&#45;&gt;15 -->
<g id="edge18" class="edge">
<title>9&#45;&gt;15</title>
<path fill="none" stroke="#0d2b7c" stroke-width="0.5" d="M625.52,-183.93C628.89,-172.71 632.87,-159.42 636.36,-147.8"/>
<polygon fill="#0d2b7c" stroke="#0d2b7c" stroke-width="0.5" points="637.59,-147.95 637.43,-144.25 635.25,-147.25 637.59,-147.95"/>
<text text-anchor="middle" x="653" y="-167" font-family="Arial" font-size="10.00" fill="#0d2b7c">6.90%</text>
<text text-anchor="middle" x="653" y="-156" font-family="Arial" font-size="10.00" fill="#0d2b7c">484440×</text>
</g>
<!-- 17 -->
<g id="node17" class="node">
<title>17</title>
<polygon fill="#0d1b77" stroke="#0d1b77" points="771,-144 703,-144 703,-92 771,-92 771,-144"/>
<text text-anchor="middle" x="737" y="-132" font-family="Arial" font-size="10.00" fill="#ffffff">matrix_sum</text>
<text text-anchor="middle" x="737" y="-121" font-family="Arial" font-size="10.00" fill="#ffffff">3.25%</text>
<text text-anchor="middle" x="737" y="-110" font-family="Arial" font-size="10.00" fill="#ffffff">(3.25%)</text>
<text text-anchor="middle" x="737" y="-99" font-family="Arial" font-size="10.00" fill="#ffffff">1937760×</text>
</g>
<!-- 9&#45;&gt;17 -->
<g id="edge20" class="edge">
<title>9&#45;&gt;17</title>
<path fill="none" stroke="#0d1b77" stroke-width="0.5" d="M650.63,-190.55C658.47,-185.75 666.68,-180.41 674,-175 685.72,-166.34 697.85,-155.95 708.3,-146.48"/>
<polygon fill="#0d1b77" stroke="#0d1b77" stroke-width="0.5" points="709.16,-147.36 710.92,-144.09 707.51,-145.55 709.16,-147.36"/>
<text text-anchor="middle" x="721.5" y="-167" font-family="Arial" font-size="10.00" fill="#0d1b77">3.25%</text>
<text text-anchor="middle" x="721.5" y="-156" font-family="Arial" font-size="10.00" fill="#0d1b77">1937760×</text>
</g>
<!-- 20 -->
<g id="node18" class="node">
<title>20</title>
<polygon fill="#0d1074" stroke="#0d1074" points="874,-144 780,-144 780,-92 874,-92 874,-144"/>
<text text-anchor="middle" x="827" y="-132" font-family="Arial" font-size="10.00" fill="#ffffff">matrix_add_const</text>
<text text-anchor="middle" x="827" y="-121" font-family="Arial" font-size="10.00" fill="#ffffff">0.89%</text>
<text text-anchor="middle" x="827" y="-110" font-family="Arial" font-size="10.00" fill="#ffffff">(0.89%)</text>
<text text-anchor="middle" x="827" y="-99" font-family="Arial" font-size="10.00" fill="#ffffff">968880×</text>
</g>
<!-- 9&#45;&gt;20 -->
<g id="edge21" class="edge">
<title>9&#45;&gt;20</title>
<path fill="none" stroke="#0d1074" stroke-width="0.5" d="M650.61,-203.42C676.9,-198.19 714.4,-189.05 745,-175 761.6,-167.38 778.52,-156.47 792.63,-146.3"/>
<polygon fill="#0d1074" stroke="#0d1074" stroke-width="0.5" points="793.68,-147.06 795.79,-144.01 792.23,-145.07 793.68,-147.06"/>
<text text-anchor="middle" x="801" y="-167" font-family="Arial" font-size="10.00" fill="#0d1074">0.89%</text>
<text text-anchor="middle" x="801" y="-156" font-family="Arial" font-size="10.00" fill="#0d1074">968880×</text>
</g>
<!-- 21 -->
<g id="node19" class="node">
<title>21</title>
<polygon fill="#0d0f73" stroke="#0d0f73" points="977,-144 883,-144 883,-92 977,-92 977,-144"/>
<text text-anchor="middle" x="930" y="-132" font-family="Arial" font-size="10.00" fill="#ffffff">matrix_mul_const</text>
<text text-anchor="middle" x="930" y="-121" font-family="Arial" font-size="10.00" fill="#ffffff">0.57%</text>
<text text-anchor="middle" x="930" y="-110" font-family="Arial" font-size="10.00" fill="#ffffff">(0.57%)</text>
<text text-anchor="middle" x="930" y="-99" font-family="Arial" font-size="10.00" fill="#ffffff">484440×</text>
</g>
<!-- 9&#45;&gt;21 -->
<g id="edge22" class="edge">
<title>9&#45;&gt;21</title>
<path fill="none" stroke="#0d0f73" stroke-width="0.5" d="M650.55,-206.73C691.46,-203.16 763.41,-194.53 822,-175 843.88,-167.71 866.74,-156.45 885.76,-145.93"/>
<polygon fill="#0d0f73" stroke="#0d0f73" stroke-width="0.5" points="886.57,-146.89 889.03,-144.12 885.37,-144.75 886.57,-146.89"/>
<text text-anchor="middle" x="889" y="-167" font-family="Arial" font-size="10.00" fill="#0d0f73">0.57%</text>
<text text-anchor="middle" x="889" y="-156" font-family="Arial" font-size="10.00" fill="#0d0f73">484440×</text>
</g>
<!-- 18&#45;&gt;14 -->
<g id="edge28" class="edge">
<title>18&#45;&gt;14</title>
<path fill="none" stroke="#0d1174" stroke-width="0.5" d="M73.98,-183.69C88.61,-150.01 114.39,-90.61 129.66,-55.42"/>
<polygon fill="#0d1174" stroke="#0d1174" stroke-width="0.5" points="130.84,-55.79 131.11,-52.09 128.59,-54.81 130.84,-55.79"/>
<text text-anchor="middle" x="134.5" y="-121" font-family="Arial" font-size="10.00" fill="#0d1174">0.97%</text>
<text text-anchor="middle" x="134.5" y="-110" font-family="Arial" font-size="10.00" fill="#0d1174">7751040×</text>
</g>
<!-- 18&#45;&gt;16 -->
<g id="edge29" class="edge">
<title>18&#45;&gt;16</title>
<path fill="none" stroke="#0d1274" stroke-width="0.5" d="M92.77,-186.5C94.18,-185.63 95.59,-184.79 97,-184 118.63,-171.84 179.46,-147.81 219.03,-132.62"/>
<polygon fill="#0d1274" stroke="#0d1274" stroke-width="0.5" points="219.48,-133.76 222.31,-131.36 218.61,-131.47 219.48,-133.76"/>
<text text-anchor="middle" x="188.5" y="-167" font-family="Arial" font-size="10.00" fill="#0d1274">1.17%</text>
<text text-anchor="middle" x="188.5" y="-156" font-family="Arial" font-size="10.00" fill="#0d1274">7751040×</text>
</g>
</g>
</svg>
